<svg width="24" height="24" viewBox="0 0 24 24" fill="none" xmlns="http://www.w3.org/2000/svg">
<path fill-rule="evenodd" clip-rule="evenodd" d="M12 21.8182C17.4224 21.8182 21.8182 17.4224 21.8182 12C21.8182 6.57757 17.4224 2.18182 12 2.18182C6.57757 2.18182 2.18182 6.57757 2.18182 12C2.18182 17.4224 6.57757 21.8182 12 21.8182ZM12 24C18.6274 24 24 18.6274 24 12C24 5.37258 18.6274 0 12 0C5.37258 0 0 5.37258 0 12C0 18.6274 5.37258 24 12 24ZM14.7273 12C14.7273 13.5062 13.5062 14.7273 12 14.7273C10.4938 14.7273 9.27273 13.5062 9.27273 12C9.27273 10.4938 10.4938 9.27273 12 9.27273C13.5062 9.27273 14.7273 10.4938 14.7273 12ZM12 15.2727C11.3975 15.2727 10.9091 15.7611 10.9091 16.3636V20.1818C10.9091 20.7843 11.3975 21.2727 12 21.2727C12.6025 21.2727 13.0909 20.7843 13.0909 20.1818V16.3636C13.0909 15.7611 12.6025 15.2727 12 15.2727ZM15.2727 12C15.2727 11.3975 15.7611 10.9091 16.3636 10.9091H20.1818C20.7843 10.9091 21.2727 11.3975 21.2727 12C21.2727 12.6025 20.7843 13.0909 20.1818 13.0909H16.3636C15.7611 13.0909 15.2727 12.6025 15.2727 12ZM3.81818 10.9091C3.21569 10.9091 2.72727 11.3975 2.72727 12C2.72727 12.6025 3.21569 13.0909 3.81818 13.0909H7.63636C8.23886 13.0909 8.72727 12.6025 8.72727 12C8.72727 11.3975 8.23886 10.9091 7.63636 10.9091H3.81818Z" fill="#007BFF"/>
</svg>
