<svg width="126" height="40" viewBox="0 0 126 40" fill="none" xmlns="http://www.w3.org/2000/svg">
<path d="M59.44 10.7333V19.5333L49.8933 10.4133H48.4267V28.3333H53.0133V19.4L62.56 28.6533H64.0267V10.7333H59.44ZM76.1279 15L73.2746 22.4933L70.7146 15H65.8346L70.7146 27.32L70.5013 27.7733C69.9413 29.0533 69.1413 29.3467 67.8879 29.3467C67.7013 29.3467 67.1946 29.32 66.3413 29.2933V33.1333C67.2213 33.3467 68.0746 33.4533 68.9013 33.4533C71.6479 33.4533 73.3546 32.0667 74.7146 29.0533L80.9813 15H76.1279ZM94.5475 23.2667C94.7342 22.5467 94.8408 21.8 94.8408 21C94.8408 17.56 92.3075 14.68 88.4675 14.68C84.4942 14.68 81.3475 17.7467 81.3475 21.6667C81.3475 25.6133 84.4942 28.6533 88.8408 28.6533C90.7875 28.6533 92.5742 28.0667 94.1475 26.8667L92.4942 23.7467C91.3475 24.44 90.2008 24.7867 89.0008 24.7867C87.5075 24.7867 86.5208 24.28 86.0142 23.2667H94.5475ZM85.8542 20.28C86.2008 19 87.1342 18.28 88.2808 18.28C89.4808 18.28 90.4675 19.08 90.4942 20.28H85.8542ZM104.85 24.5467C103.17 24.5467 102.557 24.0667 102.557 22.7867V18.84H106.13V15H102.557V11.8H97.9704V15H95.9438V18.84H97.9704V23.24C97.9704 26.84 100.077 28.6533 103.837 28.6533C104.744 28.6533 105.65 28.5467 106.53 28.3333V24.4933L104.85 24.5467ZM108.889 28.3333H113.476V15H108.889V28.3333ZM108.356 10.28C108.356 11.8 109.583 12.9733 111.156 12.9733C112.729 12.9733 113.983 11.7733 113.983 10.28C113.983 8.76 112.729 7.56 111.156 7.56C109.583 7.56 108.356 8.76 108.356 10.28ZM125.321 15C124.921 14.8667 124.494 14.7867 124.014 14.7867C122.654 14.7867 121.481 15.3733 120.654 16.4133V15H116.467V28.3333H121.054V22.2533C121.054 20.0133 122.121 19.0533 124.227 19.0533H125.321V15Z" fill="#007BFF"/>
<path fill-rule="evenodd" clip-rule="evenodd" d="M20 36.3636C29.0374 36.3636 36.3636 29.0374 36.3636 20C36.3636 10.9626 29.0374 3.63636 20 3.63636C10.9626 3.63636 3.63636 10.9626 3.63636 20C3.63636 29.0374 10.9626 36.3636 20 36.3636ZM20 40C31.0457 40 40 31.0457 40 20C40 8.9543 31.0457 0 20 0C8.9543 0 0 8.9543 0 20C0 31.0457 8.9543 40 20 40ZM24.5455 20C24.5455 22.5104 22.5104 24.5455 20 24.5455C17.4896 24.5455 15.4545 22.5104 15.4545 20C15.4545 17.4896 17.4896 15.4545 20 15.4545C22.5104 15.4545 24.5455 17.4896 24.5455 20ZM20 25.4545C18.9958 25.4545 18.1818 26.2686 18.1818 27.2727V33.6364C18.1818 34.6405 18.9958 35.4545 20 35.4545C21.0042 35.4545 21.8182 34.6405 21.8182 33.6364V27.2727C21.8182 26.2686 21.0042 25.4545 20 25.4545ZM25.4545 20C25.4545 18.9958 26.2686 18.1818 27.2727 18.1818H33.6364C34.6405 18.1818 35.4545 18.9958 35.4545 20C35.4545 21.0042 34.6405 21.8182 33.6364 21.8182H27.2727C26.2686 21.8182 25.4545 21.0042 25.4545 20ZM6.36363 18.1818C5.35948 18.1818 4.54545 18.9958 4.54545 20C4.54545 21.0042 5.35948 21.8182 6.36364 21.8182H12.7273C13.7314 21.8182 14.5455 21.0042 14.5455 20C14.5455 18.9958 13.7314 18.1818 12.7273 18.1818H6.36363Z" fill="#007BFF"/>
</svg>
